<mxfile host="app.diagrams.net" modified="2024-04-07T10:00:00.000Z" agent="5.0 (Windows NT 10.0; Win64; x64) AppleWebKit/537.36 (KHTML, like Gecko) Chrome/86.0.4240.198 Safari/537.36" etag="3i8xtCoHiJ_Nh_V2rJkE" version="20.6.0">
  <diagram id="C5RBs43oDa-KdzZeNtuy" name="Firebase Additional Collections - Feedback">
    <mxGraphModel dx="1422" dy="762" grid="1" gridSize="10" guides="1" tooltips="1" connect="1" arrows="1" fold="1" page="1" pageScale="1" pageWidth="827" pageHeight="1169" math="0" shadow="0">
      <root>
        <mxCell id="WIyWlLk6GJQsqaUBKTNV-0" />
        <mxCell id="WIyWlLk6GJQsqaUBKTNV-1" parent="WIyWlLk6GJQsqaUBKTNV-0" />

        <!-- TITLE -->
        <mxCell id="title" value="&lt;h1&gt;Colecciones Adicionales - Sistema de Feedback&lt;/h1&gt;" style="text;html=1;strokeColor=none;fillColor=none;align=center;verticalAlign=middle;whiteSpace=wrap;rounded=0;" vertex="1" parent="WIyWlLk6GJQsqaUBKTNV-1">
          <mxGeometry x="40" y="20" width="740" height="40" as="geometry" />
        </mxCell>

        <!-- FEEDBACK COLLECTION -->
        <mxCell id="feedback-title" value="&lt;h2&gt;Colección: feedback&lt;/h2&gt;" style="text;html=1;strokeColor=none;fillColor=none;align=left;verticalAlign=middle;whiteSpace=wrap;rounded=0;fontColor=#D6B656;" vertex="1" parent="WIyWlLk6GJQsqaUBKTNV-1">
          <mxGeometry x="40" y="80" width="250" height="30" as="geometry" />
        </mxCell>

        <mxCell id="feedback-document" value="Documento: feedbackId" style="swimlane;fontStyle=0;childLayout=stackLayout;horizontal=1;startSize=30;horizontalStack=0;resizeParent=1;resizeParentMax=0;resizeLast=0;collapsible=1;marginBottom=0;whiteSpace=wrap;html=1;fillColor=#fff2cc;strokeColor=#d6b656;" vertex="1" parent="WIyWlLk6GJQsqaUBKTNV-1">
          <mxGeometry x="40" y="120" width="300" height="230" as="geometry" />
        </mxCell>
        <mxCell id="feedback-planId" value="planId: string" style="text;strokeColor=none;fillColor=none;align=left;verticalAlign=middle;spacingLeft=4;spacingRight=4;overflow=hidden;points=[[0,0.5],[1,0.5]];portConstraint=eastwest;rotatable=0;whiteSpace=wrap;html=1;" vertex="1" parent="feedback-document">
          <mxGeometry y="30" width="300" height="20" as="geometry" />
        </mxCell>
        <mxCell id="feedback-userId" value="userId: string" style="text;strokeColor=none;fillColor=none;align=left;verticalAlign=middle;spacingLeft=4;spacingRight=4;overflow=hidden;points=[[0,0.5],[1,0.5]];portConstraint=eastwest;rotatable=0;whiteSpace=wrap;html=1;" vertex="1" parent="feedback-document">
          <mxGeometry y="50" width="300" height="20" as="geometry" />
        </mxCell>
        <mxCell id="feedback-rating" value="rating: number (1-5)" style="text;strokeColor=none;fillColor=none;align=left;verticalAlign=middle;spacingLeft=4;spacingRight=4;overflow=hidden;points=[[0,0.5],[1,0.5]];portConstraint=eastwest;rotatable=0;whiteSpace=wrap;html=1;" vertex="1" parent="feedback-document">
          <mxGeometry y="70" width="300" height="20" as="geometry" />
        </mxCell>
        <mxCell id="feedback-comment" value="comment: string | null" style="text;strokeColor=none;fillColor=none;align=left;verticalAlign=middle;spacingLeft=4;spacingRight=4;overflow=hidden;points=[[0,0.5],[1,0.5]];portConstraint=eastwest;rotatable=0;whiteSpace=wrap;html=1;" vertex="1" parent="feedback-document">
          <mxGeometry y="90" width="300" height="20" as="geometry" />
        </mxCell>
        <mxCell id="feedback-createdAt" value="createdAt: timestamp" style="text;strokeColor=none;fillColor=none;align=left;verticalAlign=middle;spacingLeft=4;spacingRight=4;overflow=hidden;points=[[0,0.5],[1,0.5]];portConstraint=eastwest;rotatable=0;whiteSpace=wrap;html=1;" vertex="1" parent="feedback-document">
          <mxGeometry y="110" width="300" height="20" as="geometry" />
        </mxCell>
        <mxCell id="feedback-aspectRatings" value="aspectRatings: map&lt;string, number&gt;" style="text;strokeColor=none;fillColor=none;align=left;verticalAlign=middle;spacingLeft=4;spacingRight=4;overflow=hidden;points=[[0,0.5],[1,0.5]];portConstraint=eastwest;rotatable=0;whiteSpace=wrap;html=1;" vertex="1" parent="feedback-document">
          <mxGeometry y="130" width="300" height="20" as="geometry" />
        </mxCell>
        <mxCell id="feedback-hasAttendedPlan" value="hasAttendedPlan: boolean" style="text;strokeColor=none;fillColor=none;align=left;verticalAlign=middle;spacingLeft=4;spacingRight=4;overflow=hidden;points=[[0,0.5],[1,0.5]];portConstraint=eastwest;rotatable=0;whiteSpace=wrap;html=1;" vertex="1" parent="feedback-document">
          <mxGeometry y="150" width="300" height="20" as="geometry" />
        </mxCell>
        <mxCell id="feedback-visibility" value="visibility: string (public, private, anonymous)" style="text;strokeColor=none;fillColor=none;align=left;verticalAlign=middle;spacingLeft=4;spacingRight=4;overflow=hidden;points=[[0,0.5],[1,0.5]];portConstraint=eastwest;rotatable=0;whiteSpace=wrap;html=1;" vertex="1" parent="feedback-document">
          <mxGeometry y="170" width="300" height="20" as="geometry" />
        </mxCell>
        <mxCell id="feedback-reportCount" value="reportCount: number (default: 0)" style="text;strokeColor=none;fillColor=none;align=left;verticalAlign=middle;spacingLeft=4;spacingRight=4;overflow=hidden;points=[[0,0.5],[1,0.5]];portConstraint=eastwest;rotatable=0;whiteSpace=wrap;html=1;" vertex="1" parent="feedback-document">
          <mxGeometry y="190" width="300" height="20" as="geometry" />
        </mxCell>
        <mxCell id="feedback-planOwnerUserId" value="planOwnerUserId: string" style="text;strokeColor=none;fillColor=none;align=left;verticalAlign=middle;spacingLeft=4;spacingRight=4;overflow=hidden;points=[[0,0.5],[1,0.5]];portConstraint=eastwest;rotatable=0;whiteSpace=wrap;html=1;" vertex="1" parent="feedback-document">
          <mxGeometry y="210" width="300" height="20" as="geometry" />
        </mxCell>

        <!-- USER REPUTATION COLLECTION -->
        <mxCell id="user-reputation-title" value="&lt;h2&gt;Colección: userReputations&lt;/h2&gt;" style="text;html=1;strokeColor=none;fillColor=none;align=left;verticalAlign=middle;whiteSpace=wrap;rounded=0;fontColor=#D6B656;" vertex="1" parent="WIyWlLk6GJQsqaUBKTNV-1">
          <mxGeometry x="400" y="80" width="250" height="30" as="geometry" />
        </mxCell>

        <mxCell id="user-reputation-document" value="Documento: userId" style="swimlane;fontStyle=0;childLayout=stackLayout;horizontal=1;startSize=30;horizontalStack=0;resizeParent=1;resizeParentMax=0;resizeLast=0;collapsible=1;marginBottom=0;whiteSpace=wrap;html=1;fillColor=#fff2cc;strokeColor=#d6b656;" vertex="1" parent="WIyWlLk6GJQsqaUBKTNV-1">
          <mxGeometry x="400" y="120" width="300" height="190" as="geometry" />
        </mxCell>
        <mxCell id="user-reputation-averageRating" value="averageRating: number" style="text;strokeColor=none;fillColor=none;align=left;verticalAlign=middle;spacingLeft=4;spacingRight=4;overflow=hidden;points=[[0,0.5],[1,0.5]];portConstraint=eastwest;rotatable=0;whiteSpace=wrap;html=1;" vertex="1" parent="user-reputation-document">
          <mxGeometry y="30" width="300" height="20" as="geometry" />
        </mxCell>
        <mxCell id="user-reputation-totalRatings" value="totalRatings: number" style="text;strokeColor=none;fillColor=none;align=left;verticalAlign=middle;spacingLeft=4;spacingRight=4;overflow=hidden;points=[[0,0.5],[1,0.5]];portConstraint=eastwest;rotatable=0;whiteSpace=wrap;html=1;" vertex="1" parent="user-reputation-document">
          <mxGeometry y="50" width="300" height="20" as="geometry" />
        </mxCell>
        <mxCell id="user-reputation-aspectRatings" value="aspectRatings: map&lt;string, number&gt;" style="text;strokeColor=none;fillColor=none;align=left;verticalAlign=middle;spacingLeft=4;spacingRight=4;overflow=hidden;points=[[0,0.5],[1,0.5]];portConstraint=eastwest;rotatable=0;whiteSpace=wrap;html=1;" vertex="1" parent="user-reputation-document">
          <mxGeometry y="70" width="300" height="20" as="geometry" />
        </mxCell>
        <mxCell id="user-reputation-lastRatingAt" value="lastRatingAt: timestamp" style="text;strokeColor=none;fillColor=none;align=left;verticalAlign=middle;spacingLeft=4;spacingRight=4;overflow=hidden;points=[[0,0.5],[1,0.5]];portConstraint=eastwest;rotatable=0;whiteSpace=wrap;html=1;" vertex="1" parent="user-reputation-document">
          <mxGeometry y="90" width="300" height="20" as="geometry" />
        </mxCell>
        <mxCell id="user-reputation-ratingDistribution" value="ratingDistribution: map&lt;string, number&gt;" style="text;strokeColor=none;fillColor=none;align=left;verticalAlign=middle;spacingLeft=4;spacingRight=4;overflow=hidden;points=[[0,0.5],[1,0.5]];portConstraint=eastwest;rotatable=0;whiteSpace=wrap;html=1;" vertex="1" parent="user-reputation-document">
          <mxGeometry y="110" width="300" height="20" as="geometry" />
        </mxCell>
        <mxCell id="user-reputation-level" value="level: string (beginner, regular, trusted, expert)" style="text;strokeColor=none;fillColor=none;align=left;verticalAlign=middle;spacingLeft=4;spacingRight=4;overflow=hidden;points=[[0,0.5],[1,0.5]];portConstraint=eastwest;rotatable=0;whiteSpace=wrap;html=1;" vertex="1" parent="user-reputation-document">
          <mxGeometry y="130" width="300" height="20" as="geometry" />
        </mxCell>
        <mxCell id="user-reputation-plansCreated" value="plansCreated: number" style="text;strokeColor=none;fillColor=none;align=left;verticalAlign=middle;spacingLeft=4;spacingRight=4;overflow=hidden;points=[[0,0.5],[1,0.5]];portConstraint=eastwest;rotatable=0;whiteSpace=wrap;html=1;" vertex="1" parent="user-reputation-document">
          <mxGeometry y="150" width="300" height="20" as="geometry" />
        </mxCell>
        <mxCell id="user-reputation-plansAttended" value="plansAttended: number" style="text;strokeColor=none;fillColor=none;align=left;verticalAlign=middle;spacingLeft=4;spacingRight=4;overflow=hidden;points=[[0,0.5],[1,0.5]];portConstraint=eastwest;rotatable=0;whiteSpace=wrap;html=1;" vertex="1" parent="user-reputation-document">
          <mxGeometry y="170" width="300" height="20" as="geometry" />
        </mxCell>

        <!-- ASPECTS/CRITERIA COLLECTION -->
        <mxCell id="aspects-title" value="&lt;h2&gt;Colección: feedbackAspects&lt;/h2&gt;" style="text;html=1;strokeColor=none;fillColor=none;align=left;verticalAlign=middle;whiteSpace=wrap;rounded=0;fontColor=#D6B656;" vertex="1" parent="WIyWlLk6GJQsqaUBKTNV-1">
          <mxGeometry x="40" y="380" width="250" height="30" as="geometry" />
        </mxCell>

        <mxCell id="aspects-document" value="Documento: aspectId" style="swimlane;fontStyle=0;childLayout=stackLayout;horizontal=1;startSize=30;horizontalStack=0;resizeParent=1;resizeParentMax=0;resizeLast=0;collapsible=1;marginBottom=0;whiteSpace=wrap;html=1;fillColor=#fff2cc;strokeColor=#d6b656;" vertex="1" parent="WIyWlLk6GJQsqaUBKTNV-1">
          <mxGeometry x="40" y="420" width="300" height="130" as="geometry" />
        </mxCell>
        <mxCell id="aspects-name" value="name: string" style="text;strokeColor=none;fillColor=none;align=left;verticalAlign=middle;spacingLeft=4;spacingRight=4;overflow=hidden;points=[[0,0.5],[1,0.5]];portConstraint=eastwest;rotatable=0;whiteSpace=wrap;html=1;" vertex="1" parent="aspects-document">
          <mxGeometry y="30" width="300" height="20" as="geometry" />
        </mxCell>
        <mxCell id="aspects-description" value="description: string" style="text;strokeColor=none;fillColor=none;align=left;verticalAlign=middle;spacingLeft=4;spacingRight=4;overflow=hidden;points=[[0,0.5],[1,0.5]];portConstraint=eastwest;rotatable=0;whiteSpace=wrap;html=1;" vertex="1" parent="aspects-document">
          <mxGeometry y="50" width="300" height="20" as="geometry" />
        </mxCell>
        <mxCell id="aspects-category" value="category: string" style="text;strokeColor=none;fillColor=none;align=left;verticalAlign=middle;spacingLeft=4;spacingRight=4;overflow=hidden;points=[[0,0.5],[1,0.5]];portConstraint=eastwest;rotatable=0;whiteSpace=wrap;html=1;" vertex="1" parent="aspects-document">
          <mxGeometry y="70" width="300" height="20" as="geometry" />
        </mxCell>
        <mxCell id="aspects-order" value="order: number" style="text;strokeColor=none;fillColor=none;align=left;verticalAlign=middle;spacingLeft=4;spacingRight=4;overflow=hidden;points=[[0,0.5],[1,0.5]];portConstraint=eastwest;rotatable=0;whiteSpace=wrap;html=1;" vertex="1" parent="aspects-document">
          <mxGeometry y="90" width="300" height="20" as="geometry" />
        </mxCell>
        <mxCell id="aspects-active" value="active: boolean (default: true)" style="text;strokeColor=none;fillColor=none;align=left;verticalAlign=middle;spacingLeft=4;spacingRight=4;overflow=hidden;points=[[0,0.5],[1,0.5]];portConstraint=eastwest;rotatable=0;whiteSpace=wrap;html=1;" vertex="1" parent="aspects-document">
          <mxGeometry y="110" width="300" height="20" as="geometry" />
        </mxCell>

        <!-- DESIGN NOTES -->
        <mxCell id="design-notes" value="&lt;h3&gt;Notas de diseño - Sistema de Feedback&lt;/h3&gt;&lt;p&gt;1. El sistema permite valoraciones detalladas de planes y establece reputación de usuarios&lt;br&gt;2. La colección feedback almacena valoraciones individuales de un usuario a un plan&lt;br&gt;3. La colección userReputations mantiene estadísticas agregadas para cada usuario&lt;br&gt;4. La colección feedbackAspects define criterios específicos para valorar (puntualidad, comunicación, etc)&lt;br&gt;5. Las reputaciones de usuario se actualizan mediante Cloud Functions al crear/modificar feedback&lt;/p&gt;" style="shape=note;strokeWidth=2;fontSize=14;size=20;whiteSpace=wrap;html=1;fillColor=#fff2cc;strokeColor=#d6b656;fontColor=#666600;align=left;spacing=8;" vertex="1" parent="WIyWlLk6GJQsqaUBKTNV-1">
          <mxGeometry x="400" y="380" width="380" height="170" as="geometry" />
        </mxCell>

        <!-- IMPLEMENTATION RECOMMENDATIONS -->
        <mxCell id="implementation-title" value="&lt;h2&gt;Recomendaciones de implementación&lt;/h2&gt;" style="text;html=1;strokeColor=none;fillColor=none;align=left;verticalAlign=middle;whiteSpace=wrap;rounded=0;fontColor=#D6B656;" vertex="1" parent="WIyWlLk6GJQsqaUBKTNV-1">
          <mxGeometry x="40" y="580" width="360" height="30" as="geometry" />
        </mxCell>

        <mxCell id="implementation-list" value="&lt;ul&gt;&lt;li&gt;Implementar validación para que solo usuarios que participaron en un plan puedan dejar valoraciones&lt;/li&gt;&lt;li&gt;Crear triggers en Cloud Functions para actualizar documentos userReputations cuando se crea/actualiza un feedback&lt;/li&gt;&lt;li&gt;Definir un conjunto estándar de aspectos para valoración (puntualidad, comunicación, actitud, etc.)&lt;/li&gt;&lt;li&gt;Implementar un mecanismo de reportes para valoraciones inapropiadas&lt;/li&gt;&lt;li&gt;Añadir restricciones para evitar que un usuario valore varias veces el mismo plan&lt;/li&gt;&lt;/ul&gt;" style="text;html=1;strokeColor=none;fillColor=none;align=left;verticalAlign=top;whiteSpace=wrap;rounded=0;" vertex="1" parent="WIyWlLk6GJQsqaUBKTNV-1">
          <mxGeometry x="40" y="620" width="700" height="120" as="geometry" />
        </mxCell>

      </root>
    </mxGraphModel>
  </diagram>
</mxfile>